<svg height="200px" width="200px" version="1.1" id="Layer_1" xmlns="http://www.w3.org/2000/svg" xmlns:xlink="http://www.w3.org/1999/xlink" viewBox="0 0 512 512" xml:space="preserve" fill="#000000"><g id="SVGRepo_bgCarrier" stroke-width="0"></g><g id="SVGRepo_tracerCarrier" stroke-linecap="round" stroke-linejoin="round"></g><g id="SVGRepo_iconCarrier"> <path style="fill:#FF583E;" d="M512,256.8l-67.2-54.232L488,127.6l-91.2-7.976l-8-87.728L312,68.584L259.2,0l-49.6,70.184 l-80-41.472l-4.8,90.912l-89.6,4.784l33.6,86.128L0,252.016l70.4,52.632l-35.2,74.968l88,9.568l4.8,89.32l81.6-38.28L264,512 l48-71.776l75.2,36.688l6.4-89.32l88-1.592l-32-73.368L512,256.8z"></path> <path d="M320.8,171.808h-16.816v-37.944c0-4.64-3.768-8.408-8.408-8.408h-79.16c-4.64,0-8.408,3.768-8.408,8.408v37.944h-16.816 v-37.944c0-13.904,11.312-25.216,25.216-25.216h79.16c13.904,0,25.216,11.312,25.216,25.216v37.944H320.8z"></path> <path style="fill:#EAEAEA;" d="M159.28,161.96l-37.784,182.472h269.008L352.72,161.96H159.28z"></path> <path d="M215.368,226.408c-8.104,0-14.672-6.576-14.672-14.688s6.568-14.688,14.672-14.688s14.672,6.576,14.672,14.688 S223.472,226.408,215.368,226.408z M296.632,226.408c-8.104,0-14.672-6.576-14.672-14.688s6.568-14.688,14.672-14.688 s14.672,6.576,14.672,14.688S304.736,226.408,296.632,226.408z"></path> </g></svg>